<?xml version="1.0" encoding="UTF-8"?>
<svg width="200" height="200" viewBox="0 0 200 200" fill="none" xmlns="http://www.w3.org/2000/svg">
  <!-- Background Circle -->
  <circle cx="100" cy="100" r="96" fill="#00ACC1" />
  <circle cx="100" cy="100" r="85" fill="white" />
  
  <!-- Mosque Silhouette -->
  <path fill-rule="evenodd" clip-rule="evenodd" d="M100 40C102.761 40 105 42.2386 105 45V60H110C112.761 60 115 62.2386 115 65V75H120C122.761 75 125 77.2386 125 80V90H130C132.761 90 135 92.2386 135 95V110H140C142.761 110 145 112.239 145 115V120C145 122.761 142.761 125 140 125H135V145C135 147.761 132.761 150 130 150H70C67.2386 150 65 147.761 65 145V125H60C57.2386 125 55 122.761 55 120V115C55 112.239 57.2386 110 60 110H65V95C65 92.2386 67.2386 90 70 90H75V80C75 77.2386 77.2386 75 80 75H85V65C85 62.2386 87.2386 60 90 60H95V45C95 42.2386 97.2386 40 100 40Z" fill="#00ACC1" />
  
  <!-- Dome -->
  <path fill-rule="evenodd" clip-rule="evenodd" d="M100 60C111.046 60 120 68.9543 120 80V90H80V80C80 68.9543 88.9543 60 100 60Z" fill="#00ACC1" />
  
  <!-- Star -->
  <path d="M100 25L104.635 38.7639H119.147L107.256 47.2361L111.891 61L100 52.5279L88.1088 61L92.7443 47.2361L80.8533 38.7639H95.3648L100 25Z" fill="#00ACC1" />
  
  <!-- Crescent -->
  <path fill-rule="evenodd" clip-rule="evenodd" d="M130 60C142.15 60 152 69.8497 152 82C152 94.1503 142.15 104 130 104C145.464 104 158 91.464 158 76C158 60.536 145.464 48 130 48C114.536 48 102 60.536 102 76C102 91.464 114.536 104 130 104C117.85 104 108 94.1503 108 82C108 69.8497 117.85 60 130 60Z" fill="#43A047" />
</svg>